<?xml version="1.0" ?><!DOCTYPE svg  PUBLIC '-//W3C//DTD SVG 1.1//EN'  'http://www.w3.org/Graphics/SVG/1.1/DTD/svg11.dtd'><svg height="113.000" viewBox="-431.000 -68.000 444.000 113.000" width="444.000" xmlns="http://www.w3.org/2000/svg"><polygon fill="none" fill-rule="evenodd" points="0.0,0.0 0.0,0.0 0.0,0.0" stroke-linejoin="round"/><polyline fill="none" points="-400.0,0.0 -391.865267138,-1.72909084715 -385.13710349,-6.61738787282 -380.978869674,-13.8196601125 -380.109562093,-22.0905692654 -382.679491924,-30.0 -388.244294954,-36.1803398875 -395.841766184,-39.5629520147 -404.158233816,-39.5629520147 -411.755705046,-36.1803398875 -417.320508076,-30.0 -419.890437907,-22.0905692654 -419.021130326,-13.8196601125 -414.86289651,-6.61738787282 -408.134732862,-1.72909084715 -400.0,-1.66533453694e-14" stroke="#000" stroke-linecap="round" stroke-linejoin="round"/><polyline fill="none" points="-320.0,2.33146835171e-14 -311.865267138,-1.72909084715 -305.13710349,-6.61738787282 -300.978869674,-13.8196601125 -300.109562093,-22.0905692654 -302.679491924,-30.0 -308.244294954,-36.1803398875 -315.841766184,-39.5629520147 -324.158233816,-39.5629520147 -331.755705046,-36.1803398875 -337.320508076,-30.0 -339.890437907,-22.0905692654 -339.021130326,-13.8196601125 -334.86289651,-6.61738787282 -328.134732862,-1.72909084715 -320.0,-8.881784197e-16" stroke="#000" stroke-linecap="round" stroke-linejoin="round"/><polyline fill="none" points="-240.0,7.90478793533e-14 -231.865267138,-1.72909084715 -225.13710349,-6.61738787282 -220.978869674,-13.8196601125 -220.109562093,-22.0905692654 -222.679491924,-30.0 -228.244294954,-36.1803398875 -235.841766184,-39.5629520147 -244.158233816,-39.5629520147 -251.755705046,-36.1803398875 -257.320508076,-30.0 -259.890437907,-22.0905692654 -259.021130326,-13.8196601125 -254.86289651,-6.61738787282 -248.134732862,-1.72909084715 -240.0,6.48370246381e-14" stroke="#000" stroke-linecap="round" stroke-linejoin="round"/><polyline fill="none" points="-160.0,1.91402449445e-13 -151.865267138,-1.72909084715 -145.13710349,-6.61738787282 -140.978869674,-13.8196601125 -140.109562093,-22.0905692654 -142.679491924,-30.0 -148.244294954,-36.1803398875 -155.841766184,-39.5629520147 -164.158233816,-39.5629520147 -171.755705046,-36.1803398875 -177.320508076,-30.0 -179.890437907,-22.0905692654 -179.021130326,-13.8196601125 -174.86289651,-6.61738787282 -168.134732862,-1.72909084715 -160.0,1.84519066693e-13" stroke="#000" stroke-linecap="round" stroke-linejoin="round"/><text fill="#000" font-family="Liberation Sans" font-size="8.0pt" stroke-width="0.0" x="-406.0" y="-17">q0</text><text fill="#000" font-family="Liberation Sans" font-size="8.0pt" stroke-width="0.0" x="-326.0" y="-17">q1</text><text fill="#000" font-family="Liberation Sans" font-size="8.0pt" stroke-width="0.0" x="-246.0" y="-17">q2</text><text fill="#000" font-family="Liberation Sans" font-size="8.0pt" stroke-width="0.0" x="-166.0" y="-17">q3</text><line fill="none" stroke="#000" stroke-linecap="round" x1="-400.0" x2="-400.0" y1="-56.0" y2="-41.0"/><polyline fill="none" points="-400.0,-41.0 -403.535533906,-44.5355339059 -400.0,-41.0 -396.464466094,-44.5355339059" stroke="#000" stroke-linecap="round" stroke-linejoin="round"/><polyline fill="none" points="-240.0,-5.0 -233.491743913,-6.48546698146 -228.272527763,-10.6476529721 -225.376081317,-16.6621859907 -225.376081317,-23.3378140093 -228.272527763,-29.3523470279 -233.491743913,-33.5145330185 -240.0,-35.0 -246.508256087,-33.5145330185 -251.727472237,-29.3523470279 -254.623918683,-23.3378140093 -254.623918683,-16.6621859907 -251.727472237,-10.6476529721 -246.508256087,-6.48546698146 -240.0,-5.0" stroke="#000" stroke-linecap="round" stroke-linejoin="round"/><polyline fill="none" points="-388.0,-4.0 -280.0,25.0 -172.0,-4.0" stroke="#000" stroke-linecap="round" stroke-linejoin="round"/><polyline fill="none" points="-172.0,-4.0 -174.497699862,0.331454190203 -172.0,-4.0 -176.33145419,-6.49769986151" stroke="#000" stroke-linecap="round" stroke-linejoin="round"/><text fill="#000" font-family="Liberation Sans" font-size="6.0pt" stroke-width="0.0" x="-284.0" y="33">1</text><polyline fill="none" points="-308.0,-4.0 -240.0,25.0 -172.0,-4.0" stroke="#000" stroke-linecap="round" stroke-linejoin="round"/><polyline fill="none" points="-172.0,-4.0 -173.865196236,0.639077817943 -172.0,-4.0 -176.639077818,-5.86519623608" stroke="#000" stroke-linecap="round" stroke-linejoin="round"/><text fill="#000" font-family="Liberation Sans" font-size="6.0pt" stroke-width="0.0" x="-244.0" y="33">1</text><polyline fill="none" points="-248.0,0.0 -248.0,16.0 -232.0,16.0 -232.0,2.6645352591e-14" stroke="#000" stroke-linecap="round" stroke-linejoin="round"/><polyline fill="none" points="-232.0,2.6645352591e-14 -228.464466094,3.53553390593 -232.0,2.6645352591e-14 -235.535533906,3.53553390593" stroke="#000" stroke-linecap="round" stroke-linejoin="round"/><text fill="#000" font-family="Liberation Sans" font-size="6.0pt" stroke-width="0.0" x="-246.0" y="14">1</text><line fill="none" stroke="#000" stroke-linecap="round" x1="-180.0" x2="-220.0" y1="-28.0" y2="-28.0"/><line fill="none" stroke="none" stroke-linecap="round" x1="0.0" x2="0.0" y1="0.0" y2="0.0"/><polyline fill="none" points="-220.0,-28.0 -216.464466094,-31.5355339059 -220.0,-28.0 -216.464466094,-24.4644660941" stroke="#000" stroke-linecap="round" stroke-linejoin="round"/><line fill="none" stroke="none" stroke-linecap="round" stroke-width="2.0" x1="0.0" x2="0.0" y1="0.0" y2="0.0"/><text fill="#000" font-family="Liberation Sans" font-size="6.0pt" stroke-width="0.0" x="-196.0" y="-30">1</text></svg>